<svg width="1155" height="956" viewBox="0 0 1155 956" fill="none" xmlns="http://www.w3.org/2000/svg">
<rect x="-285" width="1440" height="956" fill="#F2F2F2"/>
<path fill-rule="evenodd" clip-rule="evenodd" d="M-285 163L-225 229.083C-165 295.167 -45 427.333 75 427.333C195 427.333 315 295.167 435 321.6C555 348.033 675 533.067 795 638.8C915 744.533 1035 770.967 1095 784.183L1155 797.4V956H1095C1035 956 915 956 795 956C675 956 555 956 435 956C315 956 195 956 75 956C-45 956 -165 956 -225 956H-285V163Z" fill="white" fill-opacity="0.4"/>
<path fill-rule="evenodd" clip-rule="evenodd" d="M1155 696.709L1095 729.121C1035 761.532 915 826.355 795 804.747C675 783.14 555 675.102 435 610.279C315 545.457 195 523.849 75 534.653C-45 545.457 -165 588.672 -225 610.279L-285 631.887V956H-225C-165 956 -45 956 75 956C195 956 315 956 435 956C555 956 675 956 795 956C915 956 1035 956 1095 956H1155V696.709Z" fill="white"/>
</svg>
